<?xml version="1.0" encoding="utf-8"?>
<!-- Generator: Adobe Illustrator 15.1.0, SVG Export Plug-In . SVG Version: 6.00 Build 0)  -->
<!DOCTYPE svg PUBLIC "-//W3C//DTD SVG 1.1//EN" "http://www.w3.org/Graphics/SVG/1.1/DTD/svg11.dtd">
<svg version="1.1" id="Слой_1" xmlns="http://www.w3.org/2000/svg" xmlns:xlink="http://www.w3.org/1999/xlink" x="0px" y="0px"
	 width="240.996px" height="202.659px" viewBox="0 0 240.996 202.659" enable-background="new 0 0 240.996 202.659"
	 xml:space="preserve">
<linearGradient id="SVGID_1_" gradientUnits="userSpaceOnUse" x1="0" y1="52.8013" x2="232.7988" y2="52.8013">
	<stop  offset="0.0121" style="stop-color:#8980BA"/>
	<stop  offset="1" style="stop-color:#5C4997"/>
</linearGradient>
<path fill="url(#SVGID_1_)" d="M4.883,105.052c0.219,0.355,0.599,0.551,0.987,0.551c0.206,0,0.415-0.056,0.604-0.171l87.493-53.804
	l48.9,10.697c0.294,0.064,0.602,0.012,0.857-0.147l67.783-42.136l4.847,7.769c0.211,0.339,0.583,0.544,0.98,0.544
	c0.011,0,0.021,0,0.032,0c0.41-0.012,0.784-0.239,0.981-0.6l14.307-26.042c0.199-0.363,0.189-0.805-0.026-1.159
	c-0.215-0.353-0.602-0.561-1.017-0.554l-30.069,0.771c-0.415,0.011-0.792,0.243-0.988,0.608c-0.197,0.366-0.183,0.808,0.037,1.16
	l4.933,7.908l-64.269,39.95L92.385,39.706c-0.292-0.064-0.599-0.012-0.854,0.145L0.551,95.799c-0.262,0.161-0.448,0.418-0.52,0.717
	c-0.071,0.298-0.021,0.612,0.14,0.874L4.883,105.052z"/>
<linearGradient id="SVGID_2_" gradientUnits="userSpaceOnUse" x1="6.4971" y1="192.0967" x2="69.4561" y2="192.0967">
	<stop  offset="0" style="stop-color:#9F7349"/>
	<stop  offset="0.5515" style="stop-color:#E8BE78"/>
	<stop  offset="0.6589" style="stop-color:#E3B975"/>
	<stop  offset="0.7617" style="stop-color:#D7AD6D"/>
	<stop  offset="0.8626" style="stop-color:#C59A63"/>
	<stop  offset="0.9618" style="stop-color:#AB7F51"/>
	<stop  offset="1" style="stop-color:#9F7349"/>
</linearGradient>
<path fill="url(#SVGID_2_)" d="M69.456,181.533v10.071c0,2.133-3.084,4.838-7.855,6.894c-6.239,2.683-14.628,4.161-23.621,4.161
	c-8.999,0-17.388-1.479-23.627-4.161c-4.771-2.056-7.855-4.761-7.855-6.894v-10.071c1.33,0.803,2.798,1.557,4.403,2.249
	c7.306,3.139,16.92,4.87,27.079,4.87c10.153,0,19.768-1.731,27.073-4.87C66.664,183.09,68.132,182.336,69.456,181.533z"/>
<linearGradient id="SVGID_3_" gradientUnits="userSpaceOnUse" x1="6.4971" y1="168.8623" x2="69.4561" y2="168.8623">
	<stop  offset="0" style="stop-color:#9F7349"/>
	<stop  offset="0.5515" style="stop-color:#E8BE78"/>
	<stop  offset="0.6589" style="stop-color:#E3B975"/>
	<stop  offset="0.7617" style="stop-color:#D7AD6D"/>
	<stop  offset="0.8626" style="stop-color:#C59A63"/>
	<stop  offset="0.9618" style="stop-color:#AB7F51"/>
	<stop  offset="1" style="stop-color:#9F7349"/>
</linearGradient>
<path fill="url(#SVGID_3_)" d="M61.601,161.975c4.771,2.051,7.855,4.755,7.855,6.888s-3.084,4.838-7.855,6.889
	c-6.239,2.688-14.628,4.161-23.621,4.161c-8.999,0-17.388-1.474-23.627-4.161c-4.771-2.051-7.855-4.756-7.855-6.889
	s3.084-4.837,7.855-6.888c6.239-2.683,14.628-4.162,23.627-4.162C46.973,157.813,55.361,159.292,61.601,161.975z"/>
<linearGradient id="SVGID_4_" gradientUnits="userSpaceOnUse" x1="92.8467" y1="130.7002" x2="155.8066" y2="130.7002">
	<stop  offset="0" style="stop-color:#9F7349"/>
	<stop  offset="0.5515" style="stop-color:#E8BE78"/>
	<stop  offset="0.6589" style="stop-color:#E3B975"/>
	<stop  offset="0.7617" style="stop-color:#D7AD6D"/>
	<stop  offset="0.8626" style="stop-color:#C59A63"/>
	<stop  offset="0.9618" style="stop-color:#AB7F51"/>
	<stop  offset="1" style="stop-color:#9F7349"/>
</linearGradient>
<path fill="url(#SVGID_4_)" d="M147.951,123.813c4.771,2.05,7.855,4.755,7.855,6.888s-3.084,4.838-7.855,6.888
	c-6.24,2.683-14.629,4.161-23.628,4.161c-8.992,0-17.382-1.479-23.621-4.161c-4.771-2.05-7.855-4.755-7.855-6.888
	s3.084-4.838,7.855-6.888c6.239-2.683,14.629-4.162,23.621-4.162C133.322,119.651,141.711,121.131,147.951,123.813z"/>
<linearGradient id="SVGID_5_" gradientUnits="userSpaceOnUse" x1="92.8467" y1="152.585" x2="155.8066" y2="152.585">
	<stop  offset="0" style="stop-color:#9F7349"/>
	<stop  offset="0.5515" style="stop-color:#E8BE78"/>
	<stop  offset="0.6589" style="stop-color:#E3B975"/>
	<stop  offset="0.7617" style="stop-color:#D7AD6D"/>
	<stop  offset="0.8626" style="stop-color:#C59A63"/>
	<stop  offset="0.9618" style="stop-color:#AB7F51"/>
	<stop  offset="1" style="stop-color:#9F7349"/>
</linearGradient>
<path fill="url(#SVGID_5_)" d="M155.807,143.372v7.372c0,2.133-3.084,4.837-7.855,6.894c-6.24,2.683-14.629,4.161-23.628,4.161
	c-8.992,0-17.382-1.479-23.621-4.161c-4.771-2.057-7.855-4.761-7.855-6.894v-7.372c1.325,0.803,2.793,1.556,4.403,2.248
	c7.306,3.139,16.921,4.871,27.073,4.871c10.159,0,19.774-1.732,27.08-4.871C153.009,144.928,154.477,144.175,155.807,143.372z"/>
<linearGradient id="SVGID_6_" gradientUnits="userSpaceOnUse" x1="92.8467" y1="172.2432" x2="155.8066" y2="172.2432">
	<stop  offset="0" style="stop-color:#9F7349"/>
	<stop  offset="0.5515" style="stop-color:#E8BE78"/>
	<stop  offset="0.6589" style="stop-color:#E3B975"/>
	<stop  offset="0.7617" style="stop-color:#D7AD6D"/>
	<stop  offset="0.8626" style="stop-color:#C59A63"/>
	<stop  offset="0.9618" style="stop-color:#AB7F51"/>
	<stop  offset="1" style="stop-color:#9F7349"/>
</linearGradient>
<path fill="url(#SVGID_6_)" d="M155.807,163.415v6.607c0,2.127-3.084,4.832-7.855,6.888c-6.24,2.683-14.629,4.162-23.628,4.162
	c-8.992,0-17.382-1.479-23.621-4.162c-4.771-2.056-7.855-4.761-7.855-6.888v-6.607c1.325,0.803,2.793,1.556,4.403,2.248
	c7.306,3.139,16.921,4.871,27.073,4.871c10.159,0,19.774-1.732,27.08-4.871C153.009,164.971,154.477,164.218,155.807,163.415z"/>
<linearGradient id="SVGID_7_" gradientUnits="userSpaceOnUse" x1="92.8467" y1="192.6729" x2="155.8066" y2="192.6729">
	<stop  offset="0" style="stop-color:#9F7349"/>
	<stop  offset="0.5515" style="stop-color:#E8BE78"/>
	<stop  offset="0.6589" style="stop-color:#E3B975"/>
	<stop  offset="0.7617" style="stop-color:#D7AD6D"/>
	<stop  offset="0.8626" style="stop-color:#C59A63"/>
	<stop  offset="0.9618" style="stop-color:#AB7F51"/>
	<stop  offset="1" style="stop-color:#9F7349"/>
</linearGradient>
<path fill="url(#SVGID_7_)" d="M155.807,182.688v8.917c0,2.133-3.084,4.838-7.855,6.894c-6.24,2.683-14.629,4.161-23.628,4.161
	c-8.992,0-17.382-1.479-23.621-4.161c-4.771-2.056-7.855-4.761-7.855-6.894v-8.917c1.325,0.809,2.793,1.556,4.403,2.249
	c7.306,3.139,16.921,4.87,27.073,4.87c10.159,0,19.774-1.731,27.08-4.87C153.009,184.243,154.477,183.496,155.807,182.688z"/>
<linearGradient id="SVGID_8_" gradientUnits="userSpaceOnUse" x1="178.0371" y1="192.6729" x2="240.9961" y2="192.6729">
	<stop  offset="0" style="stop-color:#9F7349"/>
	<stop  offset="0.5515" style="stop-color:#E8BE78"/>
	<stop  offset="0.6589" style="stop-color:#E3B975"/>
	<stop  offset="0.7617" style="stop-color:#D7AD6D"/>
	<stop  offset="0.8626" style="stop-color:#C59A63"/>
	<stop  offset="0.9618" style="stop-color:#AB7F51"/>
	<stop  offset="1" style="stop-color:#9F7349"/>
</linearGradient>
<path fill="url(#SVGID_8_)" d="M240.996,182.688v8.917c0,2.133-3.084,4.838-7.855,6.894c-6.239,2.683-14.628,4.161-23.627,4.161
	c-8.993,0-17.382-1.479-23.621-4.161c-4.771-2.056-7.855-4.761-7.855-6.894v-8.917c1.324,0.809,2.798,1.556,4.403,2.249
	c7.306,3.139,16.92,4.87,27.073,4.87c10.159,0,19.773-1.731,27.08-4.87C238.198,184.243,239.672,183.496,240.996,182.688z"/>
<linearGradient id="SVGID_9_" gradientUnits="userSpaceOnUse" x1="178.0371" y1="172.2432" x2="240.9961" y2="172.2432">
	<stop  offset="0" style="stop-color:#9F7349"/>
	<stop  offset="0.5515" style="stop-color:#E8BE78"/>
	<stop  offset="0.6589" style="stop-color:#E3B975"/>
	<stop  offset="0.7617" style="stop-color:#D7AD6D"/>
	<stop  offset="0.8626" style="stop-color:#C59A63"/>
	<stop  offset="0.9618" style="stop-color:#AB7F51"/>
	<stop  offset="1" style="stop-color:#9F7349"/>
</linearGradient>
<path fill="url(#SVGID_9_)" d="M240.996,163.415v6.607c0,2.127-3.084,4.832-7.855,6.888c-6.239,2.683-14.628,4.162-23.627,4.162
	c-8.993,0-17.382-1.479-23.621-4.162c-4.771-2.056-7.855-4.761-7.855-6.888v-6.607c1.324,0.803,2.798,1.556,4.403,2.248
	c7.306,3.139,16.92,4.871,27.073,4.871c10.159,0,19.773-1.732,27.08-4.871C238.198,164.971,239.672,164.218,240.996,163.415z"/>
<linearGradient id="SVGID_10_" gradientUnits="userSpaceOnUse" x1="178.0371" y1="152.3936" x2="240.9961" y2="152.3936">
	<stop  offset="0" style="stop-color:#9F7349"/>
	<stop  offset="0.5515" style="stop-color:#E8BE78"/>
	<stop  offset="0.6589" style="stop-color:#E3B975"/>
	<stop  offset="0.7617" style="stop-color:#D7AD6D"/>
	<stop  offset="0.8626" style="stop-color:#C59A63"/>
	<stop  offset="0.9618" style="stop-color:#AB7F51"/>
	<stop  offset="1" style="stop-color:#9F7349"/>
</linearGradient>
<path fill="url(#SVGID_10_)" d="M240.996,142.987v7.757c0,2.133-3.084,4.837-7.855,6.894c-6.239,2.683-14.628,4.161-23.627,4.161
	c-8.993,0-17.382-1.479-23.621-4.161c-4.771-2.057-7.855-4.761-7.855-6.894v-7.757c1.324,0.803,2.798,1.556,4.403,2.243
	c7.306,3.144,16.92,4.876,27.073,4.876c10.159,0,19.773-1.732,27.08-4.876C238.198,144.543,239.672,143.79,240.996,142.987z"/>
<linearGradient id="SVGID_11_" gradientUnits="userSpaceOnUse" x1="178.0371" y1="132.54" x2="240.9961" y2="132.54">
	<stop  offset="0" style="stop-color:#9F7349"/>
	<stop  offset="0.5515" style="stop-color:#E8BE78"/>
	<stop  offset="0.6589" style="stop-color:#E3B975"/>
	<stop  offset="0.7617" style="stop-color:#D7AD6D"/>
	<stop  offset="0.8626" style="stop-color:#C59A63"/>
	<stop  offset="0.9618" style="stop-color:#AB7F51"/>
	<stop  offset="1" style="stop-color:#9F7349"/>
</linearGradient>
<path fill="url(#SVGID_11_)" d="M240.996,123.714v6.603c0,2.133-3.084,4.837-7.855,6.888c-6.239,2.683-14.628,4.161-23.627,4.161
	c-8.993,0-17.382-1.479-23.621-4.161c-4.771-2.051-7.855-4.755-7.855-6.888v-6.603c1.324,0.803,2.798,1.551,4.403,2.243
	c7.306,3.145,16.92,4.87,27.073,4.87c10.159,0,19.773-1.726,27.08-4.87C238.198,125.265,239.672,124.517,240.996,123.714z"/>
<linearGradient id="SVGID_12_" gradientUnits="userSpaceOnUse" x1="178.0371" y1="112.3018" x2="240.9961" y2="112.3018">
	<stop  offset="0" style="stop-color:#9F7349"/>
	<stop  offset="0.5515" style="stop-color:#E8BE78"/>
	<stop  offset="0.6589" style="stop-color:#E3B975"/>
	<stop  offset="0.7617" style="stop-color:#D7AD6D"/>
	<stop  offset="0.8626" style="stop-color:#C59A63"/>
	<stop  offset="0.9618" style="stop-color:#AB7F51"/>
	<stop  offset="1" style="stop-color:#9F7349"/>
</linearGradient>
<path fill="url(#SVGID_12_)" d="M240.996,102.512v8.531c0,2.133-3.084,4.838-7.855,6.888c-6.239,2.683-14.628,4.162-23.627,4.162
	c-8.993,0-17.382-1.479-23.621-4.162c-4.771-2.05-7.855-4.755-7.855-6.888v-8.531c1.324,0.802,2.798,1.556,4.403,2.242
	c7.306,3.145,16.92,4.876,27.073,4.876c10.159,0,19.773-1.731,27.08-4.876C238.198,104.067,239.672,103.313,240.996,102.512z"/>
<linearGradient id="SVGID_13_" gradientUnits="userSpaceOnUse" x1="178.0371" y1="89.8403" x2="240.9961" y2="89.8403">
	<stop  offset="0" style="stop-color:#9F7349"/>
	<stop  offset="0.5515" style="stop-color:#E8BE78"/>
	<stop  offset="0.6589" style="stop-color:#E3B975"/>
	<stop  offset="0.7617" style="stop-color:#D7AD6D"/>
	<stop  offset="0.8626" style="stop-color:#C59A63"/>
	<stop  offset="0.9618" style="stop-color:#AB7F51"/>
	<stop  offset="1" style="stop-color:#9F7349"/>
</linearGradient>
<path fill="url(#SVGID_13_)" d="M233.141,82.952c4.771,2.051,7.855,4.755,7.855,6.888s-3.084,4.837-7.855,6.888
	c-6.239,2.683-14.628,4.161-23.627,4.161c-8.993,0-17.382-1.479-23.621-4.161c-4.771-2.051-7.855-4.755-7.855-6.888
	s3.084-4.837,7.855-6.888c6.239-2.683,14.628-4.161,23.621-4.161C218.513,78.791,226.901,80.27,233.141,82.952z"/>
<g>
</g>
</svg>
