<?xml version="1.0" encoding="utf-8"?>
<!-- Generator: Adobe Illustrator 15.1.0, SVG Export Plug-In . SVG Version: 6.00 Build 0)  -->
<!DOCTYPE svg PUBLIC "-//W3C//DTD SVG 1.1//EN" "http://www.w3.org/Graphics/SVG/1.1/DTD/svg11.dtd">
<svg version="1.1" xmlns="http://www.w3.org/2000/svg" xmlns:xlink="http://www.w3.org/1999/xlink" x="0px" y="0px"
	 width="42.099px" height="33.495px" viewBox="0 347.579 42.099 33.495" enable-background="new 0 347.579 42.099 33.495"
	 xml:space="preserve">
<g id="Capa_1">
	<radialGradient id="SVGID_1_" cx="21.0498" cy="364.3271" r="19.0205" gradientUnits="userSpaceOnUse">
		<stop  offset="0" style="stop-color:#AE88FF"/>
		<stop  offset="0.0781" style="stop-color:#A682F5"/>
		<stop  offset="0.4973" style="stop-color:#7E63C6"/>
		<stop  offset="0.818" style="stop-color:#654FA8"/>
		<stop  offset="1" style="stop-color:#5C489D"/>
	</radialGradient>
	<path fill="url(#SVGID_1_)" d="M42.023,378.091l-1.581-3.813c-0.215-0.517-0.808-0.763-1.326-0.548
		c-0.517,0.214-0.763,0.808-0.548,1.325l0.643,1.551l-17.147-7.005v-0.049h0l0-18.511l1.187,1.188
		c0.198,0.198,0.458,0.297,0.717,0.297c0.259,0,0.519-0.1,0.717-0.297c0.396-0.396,0.396-1.038,0-1.435l-2.918-2.918
		c-0.396-0.396-1.038-0.396-1.435,0l-2.918,2.918c-0.396,0.396-0.396,1.038,0,1.435c0.396,0.396,1.039,0.396,1.435,0l1.187-1.188
		v18.56l-17.147,7.005l0.643-1.551c0.214-0.518-0.031-1.111-0.548-1.325c-0.518-0.215-1.111,0.03-1.326,0.548l-1.58,3.813
		c-0.104,0.248-0.104,0.528,0,0.776c0.103,0.249,0.3,0.446,0.549,0.549l3.813,1.581c0.127,0.053,0.259,0.077,0.388,0.077
		c0.397,0,0.775-0.235,0.937-0.626c0.214-0.518-0.031-1.111-0.548-1.325l-1.551-0.644l17.369-7.113l17.402,7.113l-1.551,0.644
		c-0.518,0.214-0.763,0.808-0.549,1.325c0.162,0.391,0.54,0.626,0.938,0.626c0.129,0,0.261-0.024,0.388-0.077l3.813-1.581
		c0.248-0.103,0.446-0.3,0.549-0.549C42.125,378.618,42.125,378.339,42.023,378.091z"/>
	<radialGradient id="SVGID_2_" cx="23.1006" cy="366.6006" r="28.2865" gradientUnits="userSpaceOnUse">
		<stop  offset="0" style="stop-color:#E7BD78"/>
		<stop  offset="1" style="stop-color:#9F7349"/>
	</radialGradient>
	<polygon fill="url(#SVGID_2_)" points="7.168,360.654 7.168,373.339 18.859,368.62 18.859,365.373 	"/>
	<radialGradient id="SVGID_3_" cx="23.1006" cy="366.6006" r="28.2865" gradientUnits="userSpaceOnUse">
		<stop  offset="0" style="stop-color:#E7BD78"/>
		<stop  offset="1" style="stop-color:#9F7349"/>
	</radialGradient>
	<polygon fill="url(#SVGID_3_)" points="19.905,373.358 19.905,381.017 9.955,377.393 	"/>
	<radialGradient id="SVGID_4_" cx="23.1006" cy="366.6006" r="28.2865" gradientUnits="userSpaceOnUse">
		<stop  offset="0" style="stop-color:#E7BD78"/>
		<stop  offset="1" style="stop-color:#9F7349"/>
	</radialGradient>
	<polygon fill="url(#SVGID_4_)" points="18.859,363.382 18.859,355.738 8.905,359.364 	"/>
	<radialGradient id="SVGID_5_" cx="23.1006" cy="366.6006" r="28.2865" gradientUnits="userSpaceOnUse">
		<stop  offset="0" style="stop-color:#E7BD78"/>
		<stop  offset="1" style="stop-color:#9F7349"/>
	</radialGradient>
	<polygon fill="url(#SVGID_5_)" points="35.011,360.654 35.011,373.339 23.32,368.62 23.32,365.373 	"/>
	<radialGradient id="SVGID_6_" cx="23.1006" cy="366.6006" r="28.2865" gradientUnits="userSpaceOnUse">
		<stop  offset="0" style="stop-color:#E7BD78"/>
		<stop  offset="1" style="stop-color:#9F7349"/>
	</radialGradient>
	<polygon fill="url(#SVGID_6_)" points="22.273,373.358 22.273,381.017 32.224,377.393 	"/>
	<radialGradient id="SVGID_7_" cx="23.1006" cy="366.6006" r="28.2865" gradientUnits="userSpaceOnUse">
		<stop  offset="0" style="stop-color:#E7BD78"/>
		<stop  offset="1" style="stop-color:#9F7349"/>
	</radialGradient>
	<polygon fill="url(#SVGID_7_)" points="23.32,363.382 23.32,355.738 33.274,359.364 	"/>
</g>
<g id="Слой_1">
</g>
</svg>
