<?xml version="1.0" encoding="utf-8"?>
<!-- Generator: Adobe Illustrator 15.1.0, SVG Export Plug-In . SVG Version: 6.00 Build 0)  -->
<!DOCTYPE svg PUBLIC "-//W3C//DTD SVG 1.1//EN" "http://www.w3.org/Graphics/SVG/1.1/DTD/svg11.dtd">
<svg version="1.1" id="Слой_1" xmlns="http://www.w3.org/2000/svg" xmlns:xlink="http://www.w3.org/1999/xlink" x="0px" y="0px"
	 width="26.015px" height="16.999px" viewBox="0 0 26.015 16.999" enable-background="new 0 0 26.015 16.999" xml:space="preserve">
<radialGradient id="SVGID_1_" cx="9.0493" cy="18.1885" r="5.6404" gradientTransform="matrix(0.939 0 0 0.9235 7.2487 -9.5865)" gradientUnits="userSpaceOnUse">
	<stop  offset="0" style="stop-color:#E8BE78"/>
	<stop  offset="1" style="stop-color:#9F7349"/>
</radialGradient>
<ellipse fill="url(#SVGID_1_)" cx="15.747" cy="7.21" rx="1.534" ry="7.21"/>
<radialGradient id="SVGID_2_" cx="4.6978" cy="7.4482" r="12.9286" gradientUnits="userSpaceOnUse">
	<stop  offset="0.0132" style="stop-color:#9386BD"/>
	<stop  offset="0.0903" style="stop-color:#8E80B9"/>
	<stop  offset="0.5039" style="stop-color:#7262A7"/>
	<stop  offset="0.8204" style="stop-color:#64509B"/>
	<stop  offset="1" style="stop-color:#5C4997"/>
</radialGradient>
<path fill="url(#SVGID_2_)" d="M13.775,1.354c0,0-1.115,5.577-0.08,11.871c0,0-3.146-2.908-10.038-2.947c0,0-0.996-3.028-0.08-5.896
	C3.577,4.381,10.429,4.103,13.775,1.354z"/>
<radialGradient id="SVGID_3_" cx="0.498" cy="4.8799" r="4.3493" gradientTransform="matrix(1.1353 0 0 1.0568 -0.1354 2.3368)" gradientUnits="userSpaceOnUse">
	<stop  offset="0.0132" style="stop-color:#9386BD"/>
	<stop  offset="0.0903" style="stop-color:#8E80B9"/>
	<stop  offset="0.5039" style="stop-color:#7262A7"/>
	<stop  offset="0.8204" style="stop-color:#64509B"/>
	<stop  offset="1" style="stop-color:#5C4997"/>
</radialGradient>
<path fill="url(#SVGID_3_)" d="M2.969,4.418c0,0-0.721,2.504,0.048,5.858c0,0-2.546,1.252-2.979-2.684
	C-0.394,3.657,2.969,4.418,2.969,4.418z"/>
<radialGradient id="SVGID_4_" cx="3.9985" cy="14.0732" r="4.1763" gradientUnits="userSpaceOnUse">
	<stop  offset="0" style="stop-color:#E8BE78"/>
	<stop  offset="1" style="stop-color:#9F7349"/>
</radialGradient>
<path fill="url(#SVGID_4_)" d="M3.965,10.984l-0.279,6.015l1.823-0.488c0,0,0.458-0.148,0.139-0.458
	c-0.319-0.309-0.558-0.966-0.279-1.344c0.279-0.379,0.568-0.519,0.249-0.887s-0.657-0.887-0.189-1.444
	c0.468-0.558,0.638-0.567,0.16-0.807C5.111,11.333,3.965,10.984,3.965,10.984z"/>
<g>
	<linearGradient id="SVGID_5_" gradientUnits="userSpaceOnUse" x1="31.6704" y1="4.9941" x2="14.7314" y2="4.8448">
		<stop  offset="0" style="stop-color:#9386BD"/>
		<stop  offset="0.1477" style="stop-color:#8C7EB8"/>
		<stop  offset="0.4139" style="stop-color:#796AAC"/>
		<stop  offset="0.497" style="stop-color:#7263A7"/>
		<stop  offset="0.5068" style="stop-color:#7262A7"/>
		<stop  offset="0.6851" style="stop-color:#68559E"/>
		<stop  offset="0.8534" style="stop-color:#5F4C99"/>
		<stop  offset="1" style="stop-color:#5C4997"/>
	</linearGradient>
	<path fill="url(#SVGID_5_)" d="M19.382,6.728c-0.193,0-0.383-0.094-0.498-0.267c-0.183-0.274-0.108-0.646,0.166-0.828
		c0.087-0.059,2.355-1.375,4.244-2.47c0.286-0.166,0.651-0.068,0.816,0.217c0.166,0.286,0.068,0.651-0.217,0.816
		c-1.603,0.93-4.032,2.34-4.19,2.437C19.604,6.696,19.493,6.728,19.382,6.728z"/>
</g>
<g>
	<linearGradient id="SVGID_6_" gradientUnits="userSpaceOnUse" x1="31.6177" y1="11.0137" x2="14.6797" y2="10.8643">
		<stop  offset="0" style="stop-color:#9386BD"/>
		<stop  offset="0.1477" style="stop-color:#8C7EB8"/>
		<stop  offset="0.4139" style="stop-color:#796AAC"/>
		<stop  offset="0.497" style="stop-color:#7263A7"/>
		<stop  offset="0.5068" style="stop-color:#7262A7"/>
		<stop  offset="0.6851" style="stop-color:#68559E"/>
		<stop  offset="0.8534" style="stop-color:#5F4C99"/>
		<stop  offset="1" style="stop-color:#5C4997"/>
	</linearGradient>
	<path fill="url(#SVGID_6_)" d="M23.593,12.747c-0.102,0-0.204-0.026-0.299-0.081c-1.889-1.095-4.157-2.411-4.244-2.47
		c-0.274-0.183-0.349-0.554-0.166-0.828c0.181-0.271,0.546-0.348,0.819-0.172c0.158,0.097,2.588,1.507,4.19,2.436
		c0.285,0.166,0.383,0.531,0.217,0.817C24,12.64,23.799,12.747,23.593,12.747z"/>
</g>
<g>
	<linearGradient id="SVGID_7_" gradientUnits="userSpaceOnUse" x1="31.644" y1="7.9912" x2="14.7055" y2="7.8418">
		<stop  offset="0" style="stop-color:#9386BD"/>
		<stop  offset="0.1477" style="stop-color:#8C7EB8"/>
		<stop  offset="0.4139" style="stop-color:#796AAC"/>
		<stop  offset="0.497" style="stop-color:#7263A7"/>
		<stop  offset="0.5068" style="stop-color:#7262A7"/>
		<stop  offset="0.6851" style="stop-color:#68559E"/>
		<stop  offset="0.8534" style="stop-color:#5F4C99"/>
		<stop  offset="1" style="stop-color:#5C4997"/>
	</linearGradient>
	<path fill="url(#SVGID_7_)" d="M20.544,8.542c-0.31,0-0.572-0.239-0.595-0.554c-0.024-0.329,0.223-0.615,0.552-0.64
		c0.104-0.008,2.728-0.038,4.91-0.062c0.002,0,0.004,0,0.007,0c0.326,0,0.594,0.263,0.597,0.591c0.004,0.33-0.261,0.601-0.591,0.604
		c-1.853,0.021-4.663,0.054-4.847,0.06C20.567,8.542,20.556,8.542,20.544,8.542z"/>
</g>
</svg>
