<?xml version="1.0" encoding="utf-8"?>
<!-- Generator: Adobe Illustrator 15.1.0, SVG Export Plug-In . SVG Version: 6.00 Build 0)  -->
<!DOCTYPE svg PUBLIC "-//W3C//DTD SVG 1.1//EN" "http://www.w3.org/Graphics/SVG/1.1/DTD/svg11.dtd">
<svg version="1.1" id="Слой_1" xmlns="http://www.w3.org/2000/svg" xmlns:xlink="http://www.w3.org/1999/xlink" x="0px" y="0px"
	 width="83.779px" height="84.334px" viewBox="0 0 83.779 84.334" enable-background="new 0 0 83.779 84.334" xml:space="preserve">
<g>
	<linearGradient id="SVGID_1_" gradientUnits="userSpaceOnUse" x1="63.6543" y1="71.6621" x2="81.4004" y2="71.6621">
		<stop  offset="0" style="stop-color:#9F7349"/>
		<stop  offset="0.5515" style="stop-color:#E7BD78"/>
		<stop  offset="0.6589" style="stop-color:#E3B976"/>
		<stop  offset="0.7617" style="stop-color:#D8AE6E"/>
		<stop  offset="0.8626" style="stop-color:#C59A62"/>
		<stop  offset="0.9618" style="stop-color:#AB7F51"/>
		<stop  offset="1" style="stop-color:#9F7349"/>
	</linearGradient>
	<rect x="63.654" y="58.99" fill="url(#SVGID_1_)" width="17.746" height="25.344"/>
	<linearGradient id="SVGID_2_" gradientUnits="userSpaceOnUse" x1="63.6543" y1="47.4941" x2="81.4004" y2="47.4941">
		<stop  offset="0" style="stop-color:#9F7349"/>
		<stop  offset="0.5515" style="stop-color:#E7BD78"/>
		<stop  offset="0.6589" style="stop-color:#E3B976"/>
		<stop  offset="0.7617" style="stop-color:#D8AE6E"/>
		<stop  offset="0.8626" style="stop-color:#C59A62"/>
		<stop  offset="0.9618" style="stop-color:#AB7F51"/>
		<stop  offset="1" style="stop-color:#9F7349"/>
	</linearGradient>
	<rect x="63.654" y="45.901" fill="url(#SVGID_2_)" width="17.746" height="3.187"/>
	<linearGradient id="SVGID_3_" gradientUnits="userSpaceOnUse" x1="61.2754" y1="53.0566" x2="83.7793" y2="53.0566">
		<stop  offset="0.0121" style="stop-color:#8C82D6"/>
		<stop  offset="1" style="stop-color:#5C489D"/>
	</linearGradient>
	<path fill="url(#SVGID_3_)" d="M83.779,56.549c0,0.273-0.222,0.495-0.496,0.495H61.771c-0.275,0-0.496-0.222-0.496-0.495v-6.983
		c0-0.274,0.221-0.496,0.496-0.496h21.512c0.274,0,0.496,0.222,0.496,0.496V56.549z"/>
	<linearGradient id="SVGID_4_" gradientUnits="userSpaceOnUse" x1="61.2754" y1="42.751" x2="83.7793" y2="42.751">
		<stop  offset="0.0121" style="stop-color:#8C82D6"/>
		<stop  offset="1" style="stop-color:#5C489D"/>
	</linearGradient>
	<path fill="url(#SVGID_4_)" d="M83.779,45.605c0,0.224-0.222,0.405-0.496,0.405H61.771c-0.275,0-0.496-0.182-0.496-0.405v-5.71
		c0-0.224,0.221-0.404,0.496-0.404h21.512c0.274,0,0.496,0.181,0.496,0.404V45.605z"/>
	
		<linearGradient id="SVGID_5_" gradientUnits="userSpaceOnUse" x1="82.8535" y1="-271.9727" x2="103.7813" y2="-271.9727" gradientTransform="matrix(0.7071 0.7071 -0.7071 0.7071 -185.7695 159.0408)">
		<stop  offset="0" style="stop-color:#9F7349"/>
		<stop  offset="0.5515" style="stop-color:#E7BD78"/>
		<stop  offset="0.6589" style="stop-color:#E3B976"/>
		<stop  offset="0.7617" style="stop-color:#D8AE6E"/>
		<stop  offset="0.8626" style="stop-color:#C59A62"/>
		<stop  offset="0.9618" style="stop-color:#AB7F51"/>
		<stop  offset="1" style="stop-color:#9F7349"/>
	</linearGradient>
	<polygon fill="url(#SVGID_5_)" points="62.484,37.47 72.527,17.916 82.569,37.47 	"/>
</g>
<g>
	<linearGradient id="SVGID_6_" gradientUnits="userSpaceOnUse" x1="2.3789" y1="71.6621" x2="20.125" y2="71.6621">
		<stop  offset="0" style="stop-color:#9F7349"/>
		<stop  offset="0.5515" style="stop-color:#E7BD78"/>
		<stop  offset="0.6589" style="stop-color:#E3B976"/>
		<stop  offset="0.7617" style="stop-color:#D8AE6E"/>
		<stop  offset="0.8626" style="stop-color:#C59A62"/>
		<stop  offset="0.9618" style="stop-color:#AB7F51"/>
		<stop  offset="1" style="stop-color:#9F7349"/>
	</linearGradient>
	<rect x="2.379" y="58.99" fill="url(#SVGID_6_)" width="17.746" height="25.344"/>
	<linearGradient id="SVGID_7_" gradientUnits="userSpaceOnUse" x1="2.3789" y1="47.4941" x2="20.125" y2="47.4941">
		<stop  offset="0" style="stop-color:#9F7349"/>
		<stop  offset="0.5515" style="stop-color:#E7BD78"/>
		<stop  offset="0.6589" style="stop-color:#E3B976"/>
		<stop  offset="0.7617" style="stop-color:#D8AE6E"/>
		<stop  offset="0.8626" style="stop-color:#C59A62"/>
		<stop  offset="0.9618" style="stop-color:#AB7F51"/>
		<stop  offset="1" style="stop-color:#9F7349"/>
	</linearGradient>
	<rect x="2.379" y="45.901" fill="url(#SVGID_7_)" width="17.746" height="3.187"/>
	<linearGradient id="SVGID_8_" gradientUnits="userSpaceOnUse" x1="0" y1="53.0566" x2="22.5039" y2="53.0566">
		<stop  offset="0.0121" style="stop-color:#8C82D6"/>
		<stop  offset="1" style="stop-color:#5C489D"/>
	</linearGradient>
	<path fill="url(#SVGID_8_)" d="M22.504,56.549c0,0.273-0.222,0.495-0.495,0.495H0.496C0.223,57.044,0,56.822,0,56.549v-6.983
		c0-0.274,0.223-0.496,0.496-0.496h21.513c0.273,0,0.495,0.222,0.495,0.496V56.549z"/>
	<linearGradient id="SVGID_9_" gradientUnits="userSpaceOnUse" x1="0" y1="42.751" x2="22.5039" y2="42.751">
		<stop  offset="0.0121" style="stop-color:#8C82D6"/>
		<stop  offset="1" style="stop-color:#5C489D"/>
	</linearGradient>
	<path fill="url(#SVGID_9_)" d="M22.504,45.605c0,0.224-0.222,0.405-0.495,0.405H0.496C0.223,46.011,0,45.829,0,45.605v-5.71
		c0-0.224,0.223-0.404,0.496-0.404h21.513c0.273,0,0.495,0.181,0.495,0.404V45.605z"/>
	
		<linearGradient id="SVGID_10_" gradientUnits="userSpaceOnUse" x1="39.5254" y1="-228.6455" x2="60.4521" y2="-228.6455" gradientTransform="matrix(0.7071 0.7071 -0.7071 0.7071 -185.7695 159.0408)">
		<stop  offset="0" style="stop-color:#9F7349"/>
		<stop  offset="0.5515" style="stop-color:#E7BD78"/>
		<stop  offset="0.6589" style="stop-color:#E3B976"/>
		<stop  offset="0.7617" style="stop-color:#D8AE6E"/>
		<stop  offset="0.8626" style="stop-color:#C59A62"/>
		<stop  offset="0.9618" style="stop-color:#AB7F51"/>
		<stop  offset="1" style="stop-color:#9F7349"/>
	</linearGradient>
	<polygon fill="url(#SVGID_10_)" points="1.211,37.47 11.253,17.916 21.294,37.47 	"/>
</g>
<g>
	<linearGradient id="SVGID_11_" gradientUnits="userSpaceOnUse" x1="25.9404" y1="66.8008" x2="57.8389" y2="66.8008">
		<stop  offset="0" style="stop-color:#9F7349"/>
		<stop  offset="0.5515" style="stop-color:#E7BD78"/>
		<stop  offset="0.6589" style="stop-color:#E3B976"/>
		<stop  offset="0.7617" style="stop-color:#D8AE6E"/>
		<stop  offset="0.8626" style="stop-color:#C59A62"/>
		<stop  offset="0.9618" style="stop-color:#AB7F51"/>
		<stop  offset="1" style="stop-color:#9F7349"/>
	</linearGradient>
	<path fill="url(#SVGID_11_)" d="M33.645,84.334c0.063-6.47,3.729-11.688,8.245-11.688c4.518,0,8.184,5.219,8.245,11.688h7.704
		V49.268H25.94v35.066H33.645z"/>
	<linearGradient id="SVGID_12_" gradientUnits="userSpaceOnUse" x1="33.0166" y1="30.2344" x2="50.7637" y2="30.2344">
		<stop  offset="0" style="stop-color:#9F7349"/>
		<stop  offset="0.5515" style="stop-color:#E7BD78"/>
		<stop  offset="0.6589" style="stop-color:#E3B976"/>
		<stop  offset="0.7617" style="stop-color:#D8AE6E"/>
		<stop  offset="0.8626" style="stop-color:#C59A62"/>
		<stop  offset="0.9618" style="stop-color:#AB7F51"/>
		<stop  offset="1" style="stop-color:#9F7349"/>
	</linearGradient>
	<rect x="33.017" y="27.768" fill="url(#SVGID_12_)" width="17.747" height="4.934"/>
	<linearGradient id="SVGID_13_" gradientUnits="userSpaceOnUse" x1="30.6387" y1="24.835" x2="53.1426" y2="24.835">
		<stop  offset="0.0121" style="stop-color:#8C82D6"/>
		<stop  offset="1" style="stop-color:#5C489D"/>
	</linearGradient>
	<path fill="url(#SVGID_13_)" d="M53.143,27.69c0,0.223-0.224,0.404-0.496,0.404H31.133c-0.273,0-0.494-0.182-0.494-0.404v-5.71
		c0-0.224,0.221-0.405,0.494-0.405h21.514c0.272,0,0.496,0.182,0.496,0.405V27.69z"/>
	
		<linearGradient id="SVGID_14_" gradientUnits="userSpaceOnUse" x1="48.5205" y1="-262.9775" x2="69.4482" y2="-262.9775" gradientTransform="matrix(0.7071 0.7071 -0.7071 0.7071 -185.7695 159.0408)">
		<stop  offset="0" style="stop-color:#9F7349"/>
		<stop  offset="0.5515" style="stop-color:#E7BD78"/>
		<stop  offset="0.6589" style="stop-color:#E3B976"/>
		<stop  offset="0.7617" style="stop-color:#D8AE6E"/>
		<stop  offset="0.8626" style="stop-color:#C59A62"/>
		<stop  offset="0.9618" style="stop-color:#AB7F51"/>
		<stop  offset="1" style="stop-color:#9F7349"/>
	</linearGradient>
	<polygon fill="url(#SVGID_14_)" points="31.848,19.555 41.89,0 51.931,19.555 	"/>
	<linearGradient id="SVGID_15_" gradientUnits="userSpaceOnUse" x1="28.4541" y1="39.9072" x2="55.3262" y2="39.9072">
		<stop  offset="0.0121" style="stop-color:#8C82D6"/>
		<stop  offset="1" style="stop-color:#5C489D"/>
	</linearGradient>
	<path fill="url(#SVGID_15_)" d="M54.734,32.603H29.045c-0.326,0-0.591,0.407-0.591,0.908v12.794c0,0.501,0.265,0.907,0.591,0.907
		h8.189l4.655-9.066l4.656,9.066h8.188c0.327,0,0.592-0.406,0.592-0.907V33.511C55.326,33.01,55.062,32.603,54.734,32.603z"/>
</g>
</svg>
