<svg width="0" height="0" class="hidden">
    <symbol xmlns="http://www.w3.org/2000/svg" xmlns:xlink="http://www.w3.org/1999/xlink" viewBox="0 0 1024 1024" id="icon-bars">
        <path d="M128 224h768v64h-768v-64zM128 480h768v64h-768v-64zM128 736h768v64h-768v-64z"></path>
    </symbol>

    <symbol xmlns="http://www.w3.org/2000/svg" xmlns:xlink="http://www.w3.org/1999/xlink" viewBox="0 0 1024 1024" id="icon-angle-left">
        <path d="M609 137l46 46-329 329 329 329-46 46-352-352-22-23 22-23z"></path>
    </symbol>

    <symbol xmlns="http://www.w3.org/2000/svg" xmlns:xlink="http://www.w3.org/1999/xlink" viewBox="0 0 1024 1024" id="icon-angle-right">
        <path d="M415 137l352 352 22 23-22 23-352 352-46-46 329-329-329-329z"></path>
    </symbol>

    <symbol xmlns="http://www.w3.org/2000/svg" xmlns:xlink="http://www.w3.org/1999/xlink" viewBox="0 0 1024 1024" id="icon-angle-up">
        <path d="M512 211l23 22 400 400-46 46-377-377-377 377-46-46 400-400z"></path>
    </symbol>

    <symbol xmlns="http://www.w3.org/2000/svg" xmlns:xlink="http://www.w3.org/1999/xlink" viewBox="0 0 1024 1024" id="icon-angle-down">
        <path d="M135 345l377 377 377-377 46 46-400 400-23 22-23-22-400-400z"></path>
    </symbol>

    <symbol xmlns="http://www.w3.org/2000/svg" xmlns:xlink="http://www.w3.org/1999/xlink" viewBox="0 0 1024 1024" id="icon-arrow-left">
        <path d="M425 217l46 46-217 217h642v64h-642l217 217-46 46-272-272-22-23 22-23z"></path>
    </symbol>

    <symbol xmlns="http://www.w3.org/2000/svg" xmlns:xlink="http://www.w3.org/1999/xlink" viewBox="0 0 1024 1024" id="icon-arrow-right">
        <path d="M599 217l272 272 22 23-22 23-272 272-46-46 217-217h-642v-64h642l-217-217z"></path>
    </symbol>

    <symbol xmlns="http://www.w3.org/2000/svg" xmlns:xlink="http://www.w3.org/1999/xlink" viewBox="0 0 1024 1024" id="icon-arrow-up">
        <path d="M512 131l23 22 272 272-46 46-217-217v642h-64v-642l-217 217-46-46 272-272z"></path>
    </symbol>

    <symbol xmlns="http://www.w3.org/2000/svg" xmlns:xlink="http://www.w3.org/1999/xlink" viewBox="0 0 1024 1024" id="icon-arrow-down">
        <path d="M480 128h64v642l217-217 46 46-272 272-23 22-23-22-272-272 46-46 217 217v-642z"></path>
    </symbol>

    <symbol xmlns="http://www.w3.org/2000/svg" xmlns:xlink="http://www.w3.org/1999/xlink" viewBox="0 0 1024 1024" id="icon-close">
        <path d="M231 185l281 281 281-281 46 46-281 281 281 281-46 46-281-281-281 281-46-46 281-281-281-281z"></path>
    </symbol>
</svg>