<svg width="0" height="0" class="hidden">
    <symbol xmlns="http://www.w3.org/2000/svg" xmlns:xlink="http://www.w3.org/1999/xlink" viewBox="0 0 1024 1024" id="icon-bars">
        <path d="M128 224h768v64h-768v-64zM128 480h768v64h-768v-64zM128 736h768v64h-768v-64z"></path>
    </symbol>

    <symbol xmlns="http://www.w3.org/2000/svg" xmlns:xlink="http://www.w3.org/1999/xlink" viewBox="0 0 1024 1024" id="icon-angle-left">
        <path d="M711.303 0c20.426 0 40.906 7.707 56.643 23.175 31.852 31.259 32.337 82.459 1.078 114.311l-359.586 366.323 359.909 370.58c31.097 32.013 30.343 83.213-1.671 114.311-32.013 31.043-83.213 30.397-114.311-1.671l-414.882-427.224c-30.666-31.421-30.504-81.597 0.269-112.909l414.882-422.696c15.791-16.115 36.756-24.199 57.667-24.199z"></path>
    </symbol>

    <symbol xmlns="http://www.w3.org/2000/svg" xmlns:xlink="http://www.w3.org/1999/xlink" viewBox="0 0 1024 1024" id="icon-angle-right">
        <path d="M296.421 1011.604c-20.426 0-40.906-7.707-56.643-23.175-31.852-31.259-32.337-82.459-1.078-114.311l359.586-366.323-359.855-370.634c-31.097-32.013-30.343-83.213 1.671-114.311s83.213-30.397 114.311 1.671l414.882 427.224c30.558 31.475 30.397 81.651-0.323 112.963l-414.882 422.643c-15.791 16.115-36.702 24.253-57.667 24.253z"></path>
    </symbol>

    <symbol xmlns="http://www.w3.org/2000/svg" xmlns:xlink="http://www.w3.org/1999/xlink" viewBox="0 0 1024 1024" id="icon-angle-up">
        <path d="M512 211l23 22 400 400-46 46-377-377-377 377-46-46 400-400z"></path>
    </symbol>

    <symbol xmlns="http://www.w3.org/2000/svg" xmlns:xlink="http://www.w3.org/1999/xlink" viewBox="0 0 1024 1024" id="icon-angle-down">
        <path d="M135 345l377 377 377-377 46 46-400 400-23 22-23-22-400-400z"></path>
    </symbol>

    <symbol xmlns="http://www.w3.org/2000/svg" xmlns:xlink="http://www.w3.org/1999/xlink" viewBox="0 0 1024 1024" id="icon-arrow-left">
        <path d="M425 217l46 46-217 217h642v64h-642l217 217-46 46-272-272-22-23 22-23z"></path>
    </symbol>

    <symbol xmlns="http://www.w3.org/2000/svg" xmlns:xlink="http://www.w3.org/1999/xlink" viewBox="0 0 1024 1024" id="icon-arrow-right">
        <path d="M599 217l272 272 22 23-22 23-272 272-46-46 217-217h-642v-64h642l-217-217z"></path>
    </symbol>

    <symbol xmlns="http://www.w3.org/2000/svg" xmlns:xlink="http://www.w3.org/1999/xlink" viewBox="0 0 1024 1024" id="icon-arrow-up">
        <path d="M512 131l23 22 272 272-46 46-217-217v642h-64v-642l-217 217-46-46 272-272z"></path>
    </symbol>

    <symbol xmlns="http://www.w3.org/2000/svg" xmlns:xlink="http://www.w3.org/1999/xlink" viewBox="0 0 1024 1024" id="icon-arrow-down">
        <path d="M480 128h64v642l217-217 46 46-272 272-23 22-23-22-272-272 46-46 217 217v-642z"></path>
    </symbol>

    <symbol xmlns="http://www.w3.org/2000/svg" xmlns:xlink="http://www.w3.org/1999/xlink" viewBox="0 0 30.5 21.75" id="icon-arrow-to-right">
        <path d="M29,0c-0.828,0-1.5,0.671-1.5,1.5v18.75c0,0.828,0.672,1.5,1.5,1.5s1.5-0.672,1.5-1.5V1.5
		C30.5,0.671,29.828,0,29,0z"></path>
	    <path d="M14.312,2.315c-0.585-0.586-1.535-0.588-2.121-0.002c-0.586,0.585-0.587,1.535-0.002,2.121L17.243,9.5H1.5
		C0.671,9.5,0,10.171,0,11c0,0.828,0.671,1.5,1.5,1.5h15.658l-4.84,4.811c-0.588,0.584-0.591,1.534-0.007,2.122
		c0.293,0.295,0.679,0.442,1.064,0.442c0.382,0,0.765-0.146,1.057-0.436l7.454-7.406c0.282-0.281,0.441-0.663,0.442-1.062
		c0.001-0.398-0.157-0.78-0.438-1.063L14.312,2.315z"></path>
    </symbol>

    <symbol xmlns="http://www.w3.org/2000/svg" xmlns:xlink="http://www.w3.org/1999/xlink" viewBox="0 0 1024 1024" id="icon-close">
        <path d="M231 185l281 281 281-281 46 46-281 281 281 281-46 46-281-281-281 281-46-46 281-281-281-281z"></path>
    </symbol>

    <symbol xmlns="http://www.w3.org/2000/svg" xmlns:xlink="http://www.w3.org/1999/xlink" viewBox="0 0 682 682.66669" id="icon-whatsapp">
        <path d="m544.386719 93.007812c-59.875-59.945312-139.503907-92.9726558-224.335938-93.007812-174.804687 0-317.070312 142.261719-317.140625 317.113281-.023437 55.894531 14.578125 110.457031 42.332032 158.550781l-44.992188 164.335938 168.121094-44.101562c46.324218 25.269531 98.476562 38.585937 151.550781 38.601562h.132813c174.785156 0 317.066406-142.273438 317.132812-317.132812.035156-84.742188-32.921875-164.417969-92.800781-224.359376zm-224.335938 487.933594h-.109375c-47.296875-.019531-93.683594-12.730468-134.160156-36.742187l-9.621094-5.714844-99.765625 26.171875 26.628907-97.269531-6.269532-9.972657c-26.386718-41.96875-40.320312-90.476562-40.296875-140.28125.054688-145.332031 118.304688-263.570312 263.699219-263.570312 70.40625.023438 136.589844 27.476562 186.355469 77.300781s77.15625 116.050781 77.132812 186.484375c-.0625 145.34375-118.304687 263.59375-263.59375 263.59375zm144.585938-197.417968c-7.921875-3.96875-46.882813-23.132813-54.148438-25.78125-7.257812-2.644532-12.546875-3.960938-17.824219 3.96875-5.285156 7.929687-20.46875 25.78125-25.09375 31.066406-4.625 5.289062-9.242187 5.953125-17.167968 1.984375-7.925782-3.964844-33.457032-12.335938-63.726563-39.332031-23.554687-21.011719-39.457031-46.960938-44.082031-54.890626-4.617188-7.9375-.039062-11.8125 3.476562-16.171874 8.578126-10.652344 17.167969-21.820313 19.808594-27.105469 2.644532-5.289063 1.320313-9.917969-.664062-13.882813-1.976563-3.964844-17.824219-42.96875-24.425782-58.839844-6.4375-15.445312-12.964843-13.359374-17.832031-13.601562-4.617187-.230469-9.902343-.277344-15.1875-.277344-5.28125 0-13.867187 1.980469-21.132812 9.917969-7.261719 7.933594-27.730469 27.101563-27.730469 66.105469s28.394531 76.683594 32.355469 81.972656c3.960937 5.289062 55.878906 85.328125 135.367187 119.648438 18.90625 8.171874 33.664063 13.042968 45.175782 16.695312 18.984374 6.03125 36.253906 5.179688 49.910156 3.140625 15.226562-2.277344 46.878906-19.171875 53.488281-37.679687 6.601563-18.511719 6.601563-34.375 4.617187-37.683594-1.976562-3.304688-7.261718-5.285156-15.183593-9.253906zm0 0"></path>
    </symbol>
</svg>