<svg xmlns="http://www.w3.org/2000/svg" viewBox="0 0 53.06 48"><defs><style>.cls-1{fill:#634ead;}.cls-2{fill:#dcb18f;}</style></defs><title>favicon</title><g id="Layer_2" data-name="Layer 2"><g id="Слой_1" data-name="Слой 1"><path class="cls-1" d="M47.82,28.87,45.74,31a13.9,13.9,0,0,1,2.71,3.67l2.7-1.19A16.77,16.77,0,0,0,47.82,28.87Z"/><path class="cls-1" d="M3.47,35.13H6.86a21.69,21.69,0,0,1,1.81-2.45L6.56,30.56A22.16,22.16,0,0,0,3.47,35.13Z"/><path class="cls-2" d="M8.68,32.68,24,48l6.28-6.28-14.6-14.6A23,23,0,0,0,8.68,32.68Z"/><path class="cls-2" d="M13.48,24.91l-1.29-1.29L29.91,5.91,24,0,0,24l6.56,6.56A25.65,25.65,0,0,1,13.48,24.91Z"/><path class="cls-1" d="M15.68,27.12l-2.21-2.21a25.65,25.65,0,0,0-6.91,5.65l2.11,2.11A23,23,0,0,1,15.68,27.12Z"/><path class="cls-1" d="M32.63,3.19,29.91,5.91,12.19,23.62l1.29,1.29a28.34,28.34,0,0,1,14.38-3.44c8.29.09,13.85,2.55,17.45,5.22a21.74,21.74,0,0,1,2.52,2.17l5.24-5.24Z"/><path class="cls-1" d="M43.19,28.81c-3.19-2.25-8.09-4.3-15.37-4.38a25.51,25.51,0,0,0-12.14,2.7l14.6,14.6,2.35,2.34L45.74,31A18.94,18.94,0,0,0,43.19,28.81Z"/><path class="cls-2" d="M45.31,26.69c-3.6-2.67-9.16-5.14-17.45-5.22a28.34,28.34,0,0,0-14.38,3.44l2.21,2.21a25.51,25.51,0,0,1,12.14-2.7c7.29.08,12.18,2.14,15.37,4.38A18.94,18.94,0,0,1,45.74,31l2.08-2.08A21.74,21.74,0,0,0,45.31,26.69Z"/><circle class="cls-2" cx="33.28" cy="31.22" r="5.25"/></g></g></svg>